<svg xmlns="http://www.w3.org/2000/svg" viewBox="0 0 1254 1254" role="img" aria-hidden="true">
<path d="M 699 1007 L 799 1007 L 799 935 L 873 933 L 874 854 L 944 854 L 945 790 L 1022 789 L 1022 706 L 700 706 Z M 761 890 L 762 760 L 899 761 L 900 787 L 898 809 L 811 810 L 811 889 L 803 891 Z M 231 707 L 232 790 L 309 790 L 310 855 L 379 854 L 381 934 L 454 934 L 455 1007 L 554 1007 L 554 706 Z M 354 761 L 492 760 L 493 889 L 483 891 L 443 890 L 443 810 L 356 810 L 354 808 Z M 703 232 L 703 538 L 1022 537 L 1022 455 L 946 455 L 944 391 L 874 391 L 873 310 L 799 308 L 798 231 Z M 761 356 L 811 356 L 811 437 L 898 437 L 900 444 L 899 485 L 762 486 Z M 551 232 L 455 231 L 454 308 L 381 309 L 381 389 L 310 391 L 308 455 L 231 455 L 232 538 L 551 538 Z M 493 356 L 493 485 L 491 487 L 358 487 L 354 485 L 355 437 L 442 437 L 442 357 L 444 355 Z" fill="#0b2643" fill-rule="evenodd"/>
<path d="M 625 997 L 544 1080 L 584 1080 L 584 1082 L 573 1082 L 584 1083 L 584 1105 L 584 1083 L 586 1083 L 586 1110 L 626 1152 L 667 1109 L 668 1082 L 669 1109 L 669 1083 L 681 1082 L 669 1082 L 669 1080 L 710 1080 L 633 1002 L 631 1003 Z M 637 824 L 637 980 L 644 981 L 665 980 L 672 982 L 672 825 L 673 824 L 672 825 Z M 582 824 L 582 981 L 617 980 L 618 982 L 618 824 L 586 824 L 588 825 L 587 826 L 583 826 Z M 817 633 L 817 668 L 997 668 L 998 633 Z M 255 633 L 257 634 L 256 668 L 438 669 L 437 633 Z M 817 579 L 816 615 L 815 610 L 816 615 L 999 615 L 999 602 L 999 614 L 997 614 L 997 579 Z M 256 579 L 255 615 L 438 615 L 438 586 L 436 586 L 438 584 L 437 579 Z M 157 540 L 157 582 L 125 583 L 85 623 L 124 663 L 156 663 L 130 664 L 155 665 L 155 690 L 155 665 L 157 665 L 157 705 L 241 623 Z M 124 584 L 125 583 L 155 583 L 156 584 L 155 585 L 125 585 Z M 1097 539 L 1071 567 L 1049 586 L 1049 589 L 1047 588 L 1013 622 L 1096 706 L 1098 699 L 1098 665 L 1127 664 L 1098 663 L 1129 663 L 1168 624 L 1128 583 L 1100 583 L 1098 581 Z M 1098 584 L 1099 583 L 1128 583 L 1129 584 L 1128 585 L 1099 585 Z M 626 505 L 507 625 L 627 744 L 746 625 Z M 626 554 L 650 579 L 651 578 L 653 580 L 652 581 L 660 589 L 663 590 L 662 591 L 685 614 L 686 613 L 688 615 L 688 617 L 689 616 L 691 618 L 691 620 L 692 619 L 694 621 L 693 622 L 695 624 L 687 633 L 688 634 L 686 636 L 685 635 L 686 636 L 668 654 L 667 653 L 668 654 L 653 669 L 652 668 L 653 669 L 641 679 L 642 680 L 637 683 L 628 694 L 625 694 L 619 688 L 620 687 L 619 688 L 612 679 L 590 657 L 589 658 L 587 656 L 588 655 L 571 638 L 570 639 L 567 636 L 568 635 L 557 623 L 562 618 L 563 619 L 576 606 L 575 605 L 578 602 L 579 603 L 578 602 L 582 598 L 583 599 L 616 566 L 615 565 L 622 560 L 621 559 Z M 637 259 L 637 422 L 641 421 L 671 422 L 672 421 L 672 264 L 671 263 L 672 260 Z M 637 260 L 638 259 L 657 259 L 658 260 L 657 261 L 638 261 Z M 581 259 L 582 422 L 618 422 L 618 259 L 588 259 L 614 259 L 614 261 L 583 261 Z M 625 86 L 584 127 L 586 127 L 585 155 L 584 130 L 583 155 L 549 155 L 583 155 L 583 157 L 543 157 L 627 241 L 710 156 L 669 157 L 669 155 L 697 155 L 670 155 L 669 130 L 668 155 L 667 125 L 628 86 Z" fill="#d89a26" fill-rule="evenodd"/>
<path d="M 626 585 L 586 624 L 627 665 L 667 624 L 637 594 Z" fill="#0d504d" fill-rule="evenodd"/>
</svg>
